# xmcd CD database file
#
# Track frame offsets:
#	150
#	17712
#	41640
#	59295
#	76810
#	93610
#	111190
#	127762
#	148922
#	170802
#
# Disc length: 2549 seconds
#
# Revision: 1
# Processed by: cddbd v1.5.2PL0 Copyright (c) Steve Scherf et al.
# Submitted via: CDex 1.51
#
DISCID=8509f30a
DTITLE=蔡立兒 - Say U Love Me
DYEAR=1991
DGENRE=Pop
TTITLE0=沙漠的我
TTITLE1=感激
TTITLE2=Say U Love Me
TTITLE3=不再悲傷
TTITLE4=生有可戀
TTITLE5=欠你這一世
TTITLE6=忘了他
TTITLE7=請你不要這樣
TTITLE8=過界
TTITLE9=為何又再見
EXTD=YEAR: 1991
EXTT0=
EXTT1=
EXTT2=
EXTT3=
EXTT4=
EXTT5=
EXTT6=
EXTT7=
EXTT8=
EXTT9=
PLAYORDER=
